<svg xmlns="http://www.w3.org/2000/svg" width="51" height="52" viewBox="0 0 51 52"><g><g><g><path fill="#496382" d="M25.439 4.418c11.354 0 20.645 8.898 21.328 20.081h4.11C50.192 11.063 39.044.34 25.44.34 11.834.34.685 11.063-.001 24.5h4.112c.683-11.184 9.973-20.082 21.328-20.082z"/></g><g><path fill="#496382" d="M15.73 24.5h4.136c.596-2.527 2.866-4.418 5.573-4.418 2.709 0 4.978 1.89 5.573 4.417h4.136c-.643-4.787-4.747-8.495-9.71-8.495-4.962 0-9.063 3.708-9.709 8.495z"/></g><g><path fill="#496382" d="M43.06 24.5c-.675-9.142-8.31-16.376-17.621-16.376a17.69 17.69 0 0 0-3.849.438l2.812 1.7-1.125 2.125a13.454 13.454 0 0 1 2.162-.185c7.063 0 12.882 5.407 13.544 12.297z"/></g><g><path fill="#496382" d="M7.817 24.5h4.078c.428-4.446 3.018-8.246 6.686-10.403l.527 1.788 2.786-5.112-5.11-2.787.618 2.104c-5.341 2.746-9.12 8.116-9.585 14.41z"/></g><g><path fill="#496382" d="M12.089 28.435c.051.271.124.533.192.797.042.157.074.316.121.47.075.249.164.49.25.73.061.164.115.33.18.49.094.229.2.451.305.673.077.167.152.33.236.492.11.21.232.416.353.622.096.162.19.323.293.482a16.24 16.24 0 0 0 .744 1.037 14.902 14.902 0 0 0 .835.962c.152.156.307.31.463.462a15.879 15.879 0 0 0 .95.826c.169.134.342.26.515.386.168.122.337.241.51.354.187.121.38.234.57.346.174.103.347.203.527.3.204.105.412.2.62.299.18.082.358.166.54.243.223.091.45.169.68.248.177.063.355.129.535.185.248.075.498.133.751.194.173.04.344.089.517.124.286.056.576.094.866.133.15.02.297.05.447.064a13.59 13.59 0 0 0 2.7 0c.152-.014.3-.045.449-.064.29-.04.58-.077.863-.133.176-.035.346-.084.52-.126a11.3 11.3 0 0 0 .748-.192c.183-.056.36-.122.538-.185.23-.08.457-.159.679-.248.182-.075.36-.161.538-.243.208-.099.419-.194.622-.302.178-.094.351-.194.527-.297a11.009 11.009 0 0 0 1.079-.7 11.885 11.885 0 0 0 1.005-.793c.157-.138.31-.276.461-.419a14.39 14.39 0 0 0 1.299-1.424 17.687 17.687 0 0 0 .741-1.037c.103-.16.2-.32.295-.484.122-.204.241-.41.351-.62.084-.162.16-.328.239-.492.105-.222.21-.444.302-.673.065-.16.121-.326.18-.492.089-.24.178-.48.25-.727.047-.155.082-.316.124-.473.068-.264.138-.526.192-.795.026-.134.04-.274.063-.41.05-.3.1-.596.129-.9H11.895c.03.304.081.6.13.9.022.136.036.276.064.41z"/></g><g><path fill="#496382" d="M43.06 27.124c-.041.56-.11 1.11-.203 1.654l-.007.052a17.796 17.796 0 0 1-.344 1.553l-.028.108a17.89 17.89 0 0 1-.465 1.444l-.059.159a17.678 17.678 0 0 1-2.22 4.092c-.073.1-.148.199-.222.297-.25.33-.51.65-.78.961-.1.113-.2.22-.304.333-.262.285-.53.564-.812.83-.128.122-.26.239-.39.356a15.85 15.85 0 0 1-.833.709c-.157.126-.323.245-.487.365-.274.203-.55.405-.835.59-.192.126-.39.24-.59.36-.271.161-.545.327-.826.475-.227.121-.463.227-.697.337-.266.126-.53.257-.805.37-.264.11-.538.198-.807.294-.257.094-.512.192-.774.271-.307.094-.62.164-.931.241-.241.059-.478.129-.723.178-.365.073-.74.12-1.112.169-.2.028-.397.067-.6.089a17.61 17.61 0 0 1-3.531 0c-.204-.022-.4-.061-.602-.09-.372-.048-.746-.095-1.113-.168-.244-.049-.482-.12-.723-.178-.311-.077-.625-.147-.93-.24-.261-.08-.516-.178-.774-.27-.271-.098-.542-.187-.807-.297-.274-.112-.54-.243-.807-.37-.234-.11-.468-.215-.697-.336-.28-.148-.552-.312-.826-.475-.197-.12-.398-.234-.59-.36a15.83 15.83 0 0 1-.835-.59c-.164-.12-.327-.239-.486-.365-.286-.225-.56-.463-.831-.707-.131-.12-.264-.234-.393-.358-.279-.266-.55-.545-.812-.83-.1-.113-.204-.22-.302-.333a19.14 19.14 0 0 1-.781-.959c-.075-.1-.15-.199-.222-.3-.255-.353-.501-.715-.73-1.087l-.155-.253a17.827 17.827 0 0 1-.662-1.212l-.098-.208a17.684 17.684 0 0 1-.576-1.331l-.056-.157a17.66 17.66 0 0 1-.468-1.446l-.028-.107a17.797 17.797 0 0 1-.344-1.554l-.007-.052a18.347 18.347 0 0 1-.203-1.654H0c.685 13.44 11.834 24.16 25.439 24.16s24.753-10.72 25.438-24.16h-.093z"/></g></g></g></svg>