<svg xmlns="http://www.w3.org/2000/svg" width="50" height="51" viewBox="0 0 50 51"><g><g><g><path fill="#496382" d="M4.013 26.232H0C.3 39.1 10.38 49.588 23.08 50.536v-4.012c-10.49-.937-18.77-9.629-19.067-20.292z"/></g><g><path fill="#496382" d="M49.91 26.232h-4.012c-.308 10.997-9.104 19.881-20.061 20.34v4.018C39 50.13 49.603 39.435 49.91 26.232z"/></g><g><path fill="#496382" d="M45.828 23.66h4.01C48.845 11.105 38.534 1.139 25.837.696v4.017c10.49.438 19.014 8.6 19.99 18.947z"/></g><g><path fill="#496382" d="M23.08 4.76V.752C10.842 1.665 1.04 11.436.072 23.66h4.01C5.028 13.64 13.05 5.654 23.08 4.76z"/></g><g><path fill="#496382" d="M15.39 24.645c-.363 6.488 5.32 6.83 6.528 6.83.142 0 .221-.004.221-.004s.837-6.234-6.748-6.826z"/></g><g><path fill="#496382" d="M26.198 25.901s.082.005.224.005c1.205 0 6.888-.342 6.524-6.832-7.584.594-6.748 6.827-6.748 6.827z"/></g><g><g><path fill="#496382" d="M21.918 34.474c-1.357 0-4.777-.28-7.215-2.857-1.165-1.232-2.51-3.472-2.304-7.14l.17-3.059 3.055.238c3.267.254 5.77 1.405 7.456 3.407V8.41c-8.682.937-15.465 8.305-15.465 17.232 0 8.93 6.783 16.297 15.465 17.234v-8.468l-.762.054s-.144.011-.4.011z"/></g><g><path fill="#496382" d="M15.39 24.645c-.363 6.488 5.32 6.83 6.528 6.83.142 0 .221-.004.221-.004s.837-6.234-6.748-6.826z"/></g></g><g><g><path fill="#496382" d="M26.422 25.906c1.205 0 6.888-.342 6.524-6.832-7.584.594-6.748 6.827-6.748 6.827s.082.005.224.005z"/></g><g><path fill="#496382" d="M25.837 8.35v10.51c1.661-1.613 3.968-2.547 6.876-2.773l3.055-.24.173 3.06c.205 3.67-1.142 5.909-2.307 7.141-2.438 2.577-5.856 2.855-7.212 2.855-.259 0-.403-.01-.403-.01l-.182-.014v14.058c9.148-.46 16.456-8.03 16.456-17.294 0-9.263-7.308-16.831-16.456-17.292z"/></g></g></g></g></svg>