<svg xmlns="http://www.w3.org/2000/svg" width="50" height="50" viewBox="0 0 50 50"><g><g><g><path fill="#99d5d7" d="M16.323 18.554l-3.057-2.221-3.056 2.221 1.167-3.593L8.32 12.74h3.778l1.167-3.592 1.168 3.592h3.777l-3.056 2.221zm7.347 5.116V0C10.91.65.65 10.91 0 23.67z"/></g><g><path fill="#eff1f4" d="M26.243 0v4.033c10.973.67 19.7 9.784 19.7 20.923 0 11.573-9.414 20.988-20.987 20.988-11.14 0-20.253-8.728-20.923-19.701H0c.673 13.182 11.609 23.701 24.956 23.701 13.778 0 24.988-11.21 24.988-24.988C49.944 11.609 39.424.672 26.243 0z"/></g><g><path fill="#eff1f4" d="M38.307 24.956c0 7.362-5.99 13.352-13.351 13.352-6.928 0-12.637-5.305-13.288-12.065h-4c.663 8.967 8.154 16.065 17.288 16.065 9.567 0 17.35-7.784 17.35-17.352 0-9.134-7.097-16.625-16.063-17.288v4c6.76.65 12.064 6.36 12.064 13.288z"/></g><g><path fill="#eff1f4" d="M24.956 30.577c-2.656 0-4.883-1.854-5.467-4.334H15.43c.633 4.697 4.658 8.334 9.525 8.334 5.304 0 9.62-4.317 9.62-9.621 0-4.868-3.636-8.893-8.333-9.525v4.058c2.48.584 4.334 2.81 4.334 5.467a5.628 5.628 0 0 1-5.621 5.621z"/></g></g></g></svg>