<svg xmlns="http://www.w3.org/2000/svg" width="52" height="52" viewBox="0 0 52 52"><g><g><g><path fill="#496382" d="M17.224 19.484l-3.092-2.249-3.093 2.249 1.181-3.637L9.126 13.6h3.825l1.18-3.634 1.181 3.634h3.825l-3.094 2.248zm7.438 5.178V.705C11.746 1.362 1.362 11.746.705 24.662h.061z"/></g><g><path fill="#496382" d="M27.266.705v4.082c11.106.678 19.939 9.903 19.939 21.176 0 11.713-9.529 21.244-21.242 21.244-11.273 0-20.497-8.836-21.176-19.941H.705c.68 13.342 11.749 23.988 25.258 23.988 13.945 0 25.29-11.346 25.29-25.291 0-13.507-10.645-24.577-23.987-25.258z"/></g><g><path fill="#496382" d="M39.477 25.963c0 7.452-6.062 13.514-13.514 13.514-7.012 0-12.79-5.37-13.448-12.211h-4.05c.672 9.076 8.254 16.26 17.498 16.26 9.684 0 17.563-7.88 17.563-17.563 0-9.244-7.186-16.826-16.26-17.497v4.049c6.842.657 12.21 6.436 12.21 13.448z"/></g><g><path fill="#496382" d="M25.963 31.652c-2.69 0-4.942-1.876-5.534-4.386h-4.106c.64 4.754 4.714 8.435 9.64 8.435 5.369 0 9.738-4.37 9.738-9.738 0-4.926-3.681-9.001-8.435-9.64v4.108c2.51.59 4.386 2.845 4.386 5.532a5.696 5.696 0 0 1-5.69 5.69z"/></g></g></g></svg>