<svg xmlns="http://www.w3.org/2000/svg" width="42.214" height="42.248" viewBox="0 0 42.214 42.248"><g data-name="Group 262" fill="#182938"><path data-name="Path 36" d="M3.528 21.121a17.585 17.585 0 0 1 35.156-.7h3.53a21.113 21.113 0 1 0-31.43 19.1v-4.2a17.566 17.566 0 0 1-7.256-14.2Z"/><path data-name="Path 37" d="M21.124 38.724a17.5 17.5 0 0 1-3.784-.421c0-.458.006-.79.006-.8v-2.084a14.656 14.656 0 0 0 3.778.5 14.824 14.824 0 1 0-10.34-4.233v-6.1a11.345 11.345 0 1 1 6.562 6.139V21.047a4.51 4.51 0 0 1 .449-1.826 3.792 3.792 0 0 1 3.221-2.032h.155l.068-.034c0 .022.011.034.035.034h.172a3.9 3.9 0 0 1 1.533.379 3.83 3.83 0 0 1 2.1 3.376v.173a3.633 3.633 0 0 1-.414 1.67 3.741 3.741 0 0 1-3.359 2.1h-.172a3.962 3.962 0 0 1-1.55-.344l-.052-.032v4.6a7.673 7.673 0 0 0 1.6.183h.138a8.237 8.237 0 0 0 8.215-8.215v-.138a8.18 8.18 0 0 0-2.136-5.46 8.049 8.049 0 0 0-5.839-2.7h-.6a8.163 8.163 0 0 0-7.94 7.94V40.61a21.1 21.1 0 0 0 29.2-18h-3.529a17.609 17.609 0 0 1-17.517 16.114Z"/></g></svg>