<svg xmlns="http://www.w3.org/2000/svg" width="158" height="48" viewBox="0 0 158 48"><g><g><g><g><path fill="#182938" d="M3.528 21.123c0-9.702 7.894-17.596 17.597-17.596 9.466 0 17.189 7.52 17.56 16.897h3.53C41.84 9.103 32.534 0 21.124 0 9.478 0 0 9.476 0 21.123c0 7.891 4.357 14.774 10.784 18.402V35.33c-4.388-3.203-7.256-8.37-7.256-14.207z"/></g><g><path fill="#182938" d="M21.124 38.72c-1.3 0-2.563-.151-3.784-.421.005-.459.006-.79.006-.803v-2.084c1.208.322 2.472.502 3.778.502 8.156 0 14.79-6.634 14.79-14.79 0-8.156-6.634-14.79-14.79-14.79-8.156 0-14.792 6.634-14.792 14.79 0 4.133 1.71 7.87 4.453 10.557v-6.103a11.195 11.195 0 0 1-.923-4.455c0-6.21 5.052-11.263 11.262-11.263 6.211 0 11.262 5.054 11.262 11.263 0 6.21-5.05 11.263-11.262 11.263a11.14 11.14 0 0 1-3.778-.668V21.046c0-.55.15-1.159.449-1.825.872-1.355 1.946-2.033 3.22-2.033h.156l.068-.033c0 .022.011.033.035.033h.172c.447 0 .959.127 1.533.379 1.401.85 2.101 1.975 2.101 3.376v.173c0 .573-.138 1.131-.413 1.67-.815 1.401-1.935 2.102-3.36 2.102h-.171c-.494 0-1.01-.115-1.55-.344-.019-.011-.034-.023-.052-.032v4.601c.537.115 1.07.183 1.602.183h.138c1.608 0 3.112-.452 4.513-1.36 2.468-1.792 3.702-4.076 3.702-6.855v-.138c0-1.987-.711-3.807-2.136-5.46-1.768-1.802-3.714-2.704-5.838-2.704h-.603c-1.803 0-3.566.712-5.288 2.136-1.768 1.802-2.652 3.738-2.652 5.804V40.608a20.999 20.999 0 0 0 8.152 1.64c11.146 0 20.28-8.682 21.05-19.636h-3.53c-.76 9.008-8.319 16.108-17.52 16.108z"/></g></g><g><g><g><path fill="#182938" d="M73.45 0h5.936c.063.017.095.048.095.096v22.03c0 2.036.361 3.421 1.082 4.158.48.896 1.506 1.602 3.076 2.114.848.08 1.273.16 1.273.24v5.934c0 .064-.032.097-.096.097h-.385c-2.643 0-5.173-1.081-7.592-3.243-2.323-2.45-3.483-5.078-3.483-7.882V.096C73.37.032 73.403 0 73.45 0z"/></g><g><path fill="#182938" d="M86.513 11.75h5.886c.064.014.097.047.097.094v10.403c0 2.019.384 3.436 1.153 4.252 1.153 1.362 2.515 2.043 4.084 2.043h.24c2.1 0 3.716-1.08 4.853-3.243.257-.737.384-1.401.384-1.994v-11.46c.017-.065.05-.096.097-.096h5.934c.064.015.096.048.096.095V23.21c0 4.035-1.81 7.287-5.43 9.754-1.906 1.137-3.867 1.706-5.886 1.706h-.288c-3.556 0-6.599-1.553-9.129-4.661-1.458-2.178-2.186-4.284-2.186-6.318V11.844c.015-.064.047-.095.095-.095z"/></g><g><path fill="#182938" d="M123.032 11.436h.84c2.452 0 4.814.906 7.089 2.715 1.825 1.505 3.09 3.54 3.795 6.103l-.096.047h-6.463c-1.265-1.778-2.738-2.667-4.42-2.667h-.24c-.033 0-.05-.015-.05-.047l-.118.047h-.193c-1.793 0-3.299.953-4.517 2.86-.433.928-.648 1.778-.648 2.547 0 2.13 1.048 3.772 3.147 4.925.753.337 1.473.504 2.162.504h.264c1.81 0 3.348-.889 4.613-2.667h6.463l.096.048c-.737 2.675-2.066 4.757-3.988 6.247-2.195 1.714-4.605 2.57-7.231 2.57h-.217c-2.867 0-5.47-1.048-7.808-3.146-2.434-2.467-3.652-5.158-3.652-8.073v-.841c0-2.9 1.25-5.622 3.748-8.168 2.403-2.003 4.877-3.004 7.424-3.004z"/></g><g><path fill="#182938" d="M157.459 34.669L147.44 24.65l8.195-12.807h-7.297l-4.827 7.546-.076-19.102c0-.048-.032-.08-.096-.095h-5.887c-.047 0-.08.03-.096.095v34.284c0 .064.032.097.096.097h5.887c.064 0 .096-.033.096-.097v-5.235l5.301 5.302z"/></g></g><g><g><path fill="#182938" d="M64.355 23.765c0 .801-.191 1.577-.576 2.33-1.138 1.955-2.7 2.932-4.686 2.932h-.239c-.689 0-1.41-.161-2.162-.481-2.083-1.153-3.124-2.78-3.124-4.877 0-.77.208-1.618.624-2.547 1.218-1.89 2.717-2.835 4.493-2.835h.217l.096-.048c0 .033.016.048.048.048h.24c.625 0 1.338.176 2.14.528 1.953 1.186 2.93 2.756 2.93 4.71zm3.172-7.856c-2.466-2.515-5.18-3.773-8.144-3.773h-.842c-2.514 0-4.973.994-7.375 2.98-2.467 2.514-3.7 5.213-3.7 8.097v23.4c0 .021.003.476.01 1.075h6.085l.007-1.075V33.855c1.778.882 3.54 1.322 5.287 1.322h.191c2.242 0 4.34-.633 6.295-1.898 3.444-2.5 5.165-5.686 5.165-9.563v-.191c0-2.77-.993-5.31-2.98-7.616z"/></g></g></g></g></g></svg>