<svg xmlns="http://www.w3.org/2000/svg" width="51" height="51" viewBox="0 0 51 51"><g><g><g><path fill="#496382" d="M25.324 31.505a5.803 5.803 0 1 1 0-11.605 5.803 5.803 0 0 1 0 11.605zm-.13-15.575c-5.348 0-9.701 4.35-9.701 9.7 0 5.348 4.352 9.701 9.7 9.701 5.35 0 9.7-4.353 9.7-9.7 0-5.35-4.35-9.7-9.7-9.7z"/></g><g><path fill="#496382" d="M46.493 12.2c-.266.492-.58.96-.988 1.368A5.792 5.792 0 0 1 43.4 14.9a21 21 0 0 1 2.954 10.73c0 4-1.137 7.731-3.073 10.926.825.284 1.59.731 2.223 1.368.373.372.666.796.92 1.242A25.024 25.024 0 0 0 50.39 25.63c0-4.935-1.433-9.54-3.896-13.431z"/></g><g><path fill="#496382" d="M35.865 43.873a21.026 21.026 0 0 1-10.672 2.918c-3.977 0-7.687-1.123-10.868-3.039-.27.886-.727 1.724-1.426 2.421-.317.32-.673.583-1.044.816a25.039 25.039 0 0 0 13.338 3.835c4.851 0 9.386-1.382 13.235-3.768a5.86 5.86 0 0 1-1.172-.883 5.792 5.792 0 0 1-1.39-2.3z"/></g><g><path fill="#496382" d="M4.033 25.63A21.02 21.02 0 0 1 6.951 14.96a5.792 5.792 0 0 1-2.3-1.391 5.859 5.859 0 0 1-.883-1.172A25.044 25.044 0 0 0 0 25.63c0 4.895 1.41 9.467 3.835 13.34.233-.373.497-.727.816-1.046.685-.685 1.519-1.152 2.418-1.429a20.99 20.99 0 0 1-3.036-10.865z"/></g><g><path fill="#496382" d="M14.267 7.544c3.195-1.938 6.925-3.075 10.926-3.075a21 21 0 0 1 10.73 2.954c.29-.778.73-1.5 1.333-2.104a5.805 5.805 0 0 1 1.368-.988A25.03 25.03 0 0 0 25.194.437c-4.98 0-9.624 1.46-13.537 3.962.445.254.87.547 1.242.92a5.766 5.766 0 0 1 1.368 2.225z"/></g><g><path fill="#496382" d="M42.438 39.446a2.803 2.803 0 0 0-1.057-.205h-.01c-.116.002-.233.021-.35.035a3.676 3.676 0 0 0-.899-3.705l-.342-.342a17.37 17.37 0 0 0 2.836-8.186H38.58c-.709 6.762-6.44 12.049-13.387 12.049-6.946 0-12.676-5.287-13.384-12.05H7.77a17.39 17.39 0 0 0 2.742 8.05l-.48.48c-1.004 1.003-1.29 2.436-.9 3.704-.015-.002-.032 0-.048-.002l-.047-.007c-.088-.01-.174-.026-.263-.026-.08 0-.158.016-.238.023l-.062.005a2.82 2.82 0 0 0-.513.105c-.037.012-.077.02-.114.035a2.811 2.811 0 0 0-.436.198c-.044.026-.089.042-.13.07a2.95 2.95 0 0 0-.492.384v.003l-.007.007c-.128.13-.24.268-.336.412a2.588 2.588 0 0 0-.181.333c-.021.04-.045.077-.063.117a2.746 2.746 0 0 0-.152.468v.002A2.804 2.804 0 0 0 6.14 43l.014.044c.058.154.133.3.219.445.016.026.028.056.044.082.105.165.228.321.373.463.305.305.666.517 1.046.653.305.107.62.17.94.17.048 0 .097-.012.148-.014.168-.01.331-.03.494-.068l.01-.002c.156-.04.312-.086.463-.152.042-.018.08-.044.121-.065.112-.053.224-.107.329-.18a2.765 2.765 0 0 0 .82-.85c.044-.074.07-.154.107-.23.056-.11.117-.22.154-.336.035-.1.049-.203.07-.305.021-.098.049-.196.06-.294.012-.107.005-.217.003-.324 0-.084.012-.167.002-.251l-.007-.047c-.002-.016 0-.033-.002-.049 1.268.392 2.7.105 3.705-.9l.468-.468a17.37 17.37 0 0 0 9.472 2.803 17.37 17.37 0 0 0 9.337-2.71l.375.376a3.674 3.674 0 0 0 3.707.897c-.014.105-.032.21-.035.317a2.794 2.794 0 0 0 2.303 2.805h.014c.16.028.323.047.487.047.025 0 .05-.005.074-.007.336-.01.669-.07.983-.198a2.792 2.792 0 0 0 1.74-2.486 2.794 2.794 0 0 0-1.74-2.72z"/></g><g><path fill="#496382" d="M6.163 10.466c.058.152.137.299.224.44.014.024.02.047.035.07.105.16.226.313.368.453.151.151.319.277.491.386.042.026.087.045.13.068.143.08.285.15.437.2.037.014.077.024.114.035.17.052.34.087.512.105l.063.005c.08.007.159.023.238.023l.044-.004c.091-.003.18-.019.27-.03.015 0 .03.002.045 0-.392 1.267-.105 2.7.9 3.702l.39.394a17.395 17.395 0 0 0-2.665 8.134h4.034c.6-6.87 6.377-12.28 13.4-12.28 7.023 0 12.802 5.41 13.403 12.28h4.033a17.399 17.399 0 0 0-2.76-8.274l.253-.254c.22-.217.394-.46.546-.713a3.679 3.679 0 0 0 .354-2.99c.119.017.24.035.359.035.223 0 .445-.037.664-.088l.016-.005c.151-.04.3-.086.447-.15.042-.018.084-.046.126-.064.107-.056.217-.108.317-.175.147-.098.287-.21.417-.34.152-.152.277-.32.387-.494.028-.045.047-.089.07-.135.08-.14.147-.285.198-.434a2.72 2.72 0 0 0 .137-.63l.007-.069a2.752 2.752 0 0 0-.095-.983l-.03-.103a2.965 2.965 0 0 0-.12-.312c-.03-.068-.07-.135-.106-.2-.04-.073-.077-.145-.124-.215-.096-.14-.2-.272-.324-.398a2.888 2.888 0 0 0-.398-.324c-.07-.047-.142-.084-.212-.124-.068-.037-.133-.076-.203-.107a2.97 2.97 0 0 0-.312-.119l-.1-.03a2.787 2.787 0 0 0-.387-.081c-.124-.017-.25-.038-.375-.038a2.838 2.838 0 0 0-1.985.823 2.571 2.571 0 0 0-.367.468c-.042.065-.074.133-.11.2a2.87 2.87 0 0 0-.137.299 3.047 3.047 0 0 0-.09.282 3.393 3.393 0 0 0-.047.221 2.914 2.914 0 0 0-.037.876 3.679 3.679 0 0 0-2.99.354 3.6 3.6 0 0 0-.713.546l-.238.235a17.35 17.35 0 0 0-9.474-2.8c-3.551 0-6.85 1.071-9.61 2.898l-.33-.333a3.676 3.676 0 0 0-3.705-.9v-.009c.014-.114.035-.226.035-.34 0-.082-.016-.161-.023-.24l-.007-.077a2.633 2.633 0 0 0-.103-.499c-.012-.042-.021-.081-.035-.123a2.565 2.565 0 0 0-.198-.431c-.023-.045-.042-.091-.07-.133a2.862 2.862 0 0 0-.387-.494 2.802 2.802 0 0 0-1.985-.823l-.02.003c-.034.002-.064.009-.096.009a2.802 2.802 0 0 0-.988.219c-.038.016-.075.042-.112.06-.117.056-.236.112-.345.187-.147.098-.287.21-.415.338l-.01.007-.016.018a2.95 2.95 0 0 0-.335.413c-.08.121-.142.25-.203.377-.014.03-.032.059-.046.091a2.82 2.82 0 0 0-.215 1.012c-.01.365.05.729.18 1.074z"/></g></g></g></svg>